<?xml version="1.0" encoding="utf-8"?>
<!-- Generator: Adobe Illustrator 24.0.2, SVG Export Plug-In . SVG Version: 6.00 Build 0)  -->
<svg version="1.1" id="Capa_1" xmlns="http://www.w3.org/2000/svg" xmlns:xlink="http://www.w3.org/1999/xlink" x="0px" y="0px"
	 viewBox="0 0 930.9 1134" style="enable-background:new 0 0 930.9 1134;" xml:space="preserve">
<title>Recurso 1</title>
<path d="M921.6,0v1121.9H721.1v-41.5h160.8V941.7h-67.3c-1.5-15.8-2.6-28.5-4.2-45.1l71.9-4.1V765.8h-68.4
	c-0.9-15.8-1.7-28.6-2.6-44.1l71.4-4.8V582.3H721.5v-46.6h159.9v-128l-66.7-3.6c-1.4-12.1-2.9-24.9-5-42.7h72.2V222.7h-67.3
	c-1.5-15.7-2.8-28.5-4.5-45.3l72-3.9v-125H721.4c-1-19.3-1.7-33.9-2.5-48.5L921.6,0z"/>
<path d="M150.6,820.2c33.7,29.6,14.4,68.4-62,124.2c-24.5-27.7-51.2-54.5-73.1-84.8c-5.6-7.8,3.7-26.4,8.4-52.5l47,54.6
	c3.5-43.9,2.4-84.4,10.8-122.8c16.8-77.2,33.8-155.1,59.8-229.5c36.2-103.7,40-210.1,42.5-317.5c0.8-32.7,1-32.7,36.9-30.2
	c-0.8,133.3-0.1,267.2-58.1,391.5c-45,96.4-46.5,198.4-52.7,309.2L150.6,820.2z"/>
<path d="M313.3,863.3l38.3-42.3c37,27.6,22.1,59.2-59,124.2c-25.5-28.7-52.9-56.7-76-87.7c-4.9-6.6,5.4-24.6,11.3-47.4
	c19.6,21.4,31.2,34,46.4,50.7c3.8-48.7,2.9-94.5,12-138.3c14.5-69.9,30.3-140.5,55.5-207.1c39.5-104.6,42.6-212.6,45.1-321.5
	c0.5-21.8-3.2-46.5,36.8-32.7c-0.5,136.9-1.9,274-62.5,403.1C317.6,656.6,318.1,756,313.3,863.3z"/>
<path d="M557.3,818.5c30.7,33.2,13.6,66.8-62.2,126.5c-25.5-28.7-52.9-56.7-76-87.8c-4.8-6.5,5.8-24.5,11.9-46.7l46.1,50.2
	c4-51.9,3.8-100.6,12.5-147.7c11.3-61.4,21.8-124.9,46.8-181.3c48.4-109.2,49.6-223.3,53-338.1c0.7-22.1-2.5-46.1,36.5-32.3
	c0.3,132.6,0.8,266.4-57.1,390.6c-44.9,96.5-46.8,198.5-53.3,310.5L557.3,818.5z"/>
</svg>
